<?xml version="1.0" encoding="UTF-8" standalone="no"?>
<!-- Generator: Adobe Illustrator 18.1.1, SVG Export Plug-In . SVG Version: 6.00 Build 0)  -->

<svg
   xmlns:dc="http://purl.org/dc/elements/1.1/"
   xmlns:cc="http://creativecommons.org/ns#"
   xmlns:rdf="http://www.w3.org/1999/02/22-rdf-syntax-ns#"
   xmlns:svg="http://www.w3.org/2000/svg"
   xmlns="http://www.w3.org/2000/svg"
   xmlns:sodipodi="http://sodipodi.sourceforge.net/DTD/sodipodi-0.dtd"
   xmlns:inkscape="http://www.inkscape.org/namespaces/inkscape"
   version="1.1"
   id="Capa_1"
   x="0px"
   y="0px"
   viewBox="0 0 205.857 205.857"
   style="enable-background:new 0 0 205.857 205.857;"
   xml:space="preserve"
   inkscape:version="0.48.4 r9939"
   width="100%"
   height="100%"
   sodipodi:docname="skip.svg"><metadata
     id="metadata40"><rdf:RDF><cc:Work
         rdf:about=""><dc:format>image/svg+xml</dc:format><dc:type
           rdf:resource="http://purl.org/dc/dcmitype/StillImage" /><dc:title></dc:title></cc:Work></rdf:RDF></metadata><defs
     id="defs38" /><sodipodi:namedview
     pagecolor="#ffffff"
     bordercolor="#666666"
     borderopacity="1"
     objecttolerance="10"
     gridtolerance="10"
     guidetolerance="10"
     inkscape:pageopacity="0"
     inkscape:pageshadow="2"
     inkscape:window-width="640"
     inkscape:window-height="480"
     id="namedview36"
     showgrid="false"
     inkscape:zoom="1.1464269"
     inkscape:cx="102.9285"
     inkscape:cy="102.9285"
     inkscape:window-x="57"
     inkscape:window-y="24"
     inkscape:window-maximized="0"
     inkscape:current-layer="Capa_1" /><g
     id="Next_track"
     transform="matrix(-1,0,0,-1,205.858,205.85706)"><path
       style="fill-rule:evenodd"
       d="m 174.522,0 h -26.848 c -9.885,0 -17.897,8.013 -17.897,17.899 V 80.432 L 37.513,2.522 C 34.03,0.116 29.706,0.517 26.441,0.517 c -13.061,0 -13.004,11.7 -13.004,14.666 v 175.983 c 0,2.507 -0.057,14.666 13.004,14.666 3.265,0 7.589,0.401 11.072,-2.005 l 92.265,-77.91 v 62.016 c 0,9.885 8.012,17.898 17.897,17.898 h 26.848 c 9.885,0 17.898,-8.013 17.898,-17.898 V 17.899 C 192.421,8.013 184.408,0 174.522,0 z"
       id="path4"
       inkscape:connector-curvature="0" /></g><g
     id="g6" /><g
     id="g8" /><g
     id="g10" /><g
     id="g12" /><g
     id="g14" /><g
     id="g16" /><g
     id="g18" /><g
     id="g20" /><g
     id="g22" /><g
     id="g24" /><g
     id="g26" /><g
     id="g28" /><g
     id="g30" /><g
     id="g32" /><g
     id="g34" /></svg>